<mxfile host="app.diagrams.net" modified="2023-02-16T00:22:40.979Z" agent="5.0 (Macintosh; Intel Mac OS X 10_15_7) AppleWebKit/537.36 (KHTML, like Gecko) Chrome/110.0.0.0 Safari/537.36" etag="_jgkMYbALPdloQtsWXpD" version="20.8.20" type="github">
  <diagram name="Page-1" id="rLabhU69Jqzna2OfqYEQ">
    <mxGraphModel dx="2597" dy="2231" grid="1" gridSize="10" guides="1" tooltips="1" connect="1" arrows="1" fold="1" page="1" pageScale="1" pageWidth="850" pageHeight="1100" math="0" shadow="0">
      <root>
        <mxCell id="0" />
        <mxCell id="1" parent="0" />
        <mxCell id="y-JFG-o3m0YFWxHJN8Iu-92" style="edgeStyle=none;rounded=0;orthogonalLoop=1;jettySize=auto;html=1;entryX=0;entryY=0.5;entryDx=0;entryDy=0;fontSize=24;fontColor=#006600;exitX=1;exitY=0.5;exitDx=0;exitDy=0;startArrow=classic;startFill=1;strokeWidth=5;strokeColor=#006600;" edge="1" parent="1" source="y-JFG-o3m0YFWxHJN8Iu-2" target="y-JFG-o3m0YFWxHJN8Iu-3">
          <mxGeometry relative="1" as="geometry" />
        </mxCell>
        <mxCell id="y-JFG-o3m0YFWxHJN8Iu-93" style="edgeStyle=none;rounded=0;orthogonalLoop=1;jettySize=auto;html=1;entryX=0;entryY=0.5;entryDx=0;entryDy=0;fontSize=24;fontColor=#006600;startArrow=classic;startFill=1;strokeColor=#E6E6E6;" edge="1" parent="1" source="y-JFG-o3m0YFWxHJN8Iu-2" target="y-JFG-o3m0YFWxHJN8Iu-75">
          <mxGeometry relative="1" as="geometry" />
        </mxCell>
        <mxCell id="y-JFG-o3m0YFWxHJN8Iu-94" style="edgeStyle=none;rounded=0;orthogonalLoop=1;jettySize=auto;html=1;entryX=0;entryY=0.5;entryDx=0;entryDy=0;fontSize=24;fontColor=#006600;exitX=1.025;exitY=0.633;exitDx=0;exitDy=0;exitPerimeter=0;startArrow=classic;startFill=1;strokeColor=#E6E6E6;" edge="1" parent="1" source="y-JFG-o3m0YFWxHJN8Iu-2" target="y-JFG-o3m0YFWxHJN8Iu-84">
          <mxGeometry relative="1" as="geometry" />
        </mxCell>
        <mxCell id="y-JFG-o3m0YFWxHJN8Iu-2" value="Homer 2.0" style="rounded=1;whiteSpace=wrap;html=1;fillColor=#e1d5e7;strokeColor=#9673a6;fontSize=23;fontStyle=1" vertex="1" parent="1">
          <mxGeometry x="-10" y="606.5" width="240" height="135" as="geometry" />
        </mxCell>
        <mxCell id="y-JFG-o3m0YFWxHJN8Iu-10" value="" style="ellipse;shape=cloud;whiteSpace=wrap;html=1;fillColor=#fff2cc;strokeColor=#d6b656;" vertex="1" parent="1">
          <mxGeometry x="1100" y="537" width="470" height="270" as="geometry" />
        </mxCell>
        <mxCell id="y-JFG-o3m0YFWxHJN8Iu-18" value="" style="ellipse;shape=cloud;whiteSpace=wrap;html=1;fillColor=#d5e8d4;strokeColor=#82b366;" vertex="1" parent="1">
          <mxGeometry x="1100" y="146" width="470" height="270" as="geometry" />
        </mxCell>
        <mxCell id="y-JFG-o3m0YFWxHJN8Iu-26" value="" style="ellipse;shape=cloud;whiteSpace=wrap;html=1;fillColor=#f8cecc;strokeColor=#b85450;" vertex="1" parent="1">
          <mxGeometry x="1100" y="934" width="470" height="270" as="geometry" />
        </mxCell>
        <mxCell id="y-JFG-o3m0YFWxHJN8Iu-20" value="" style="sketch=0;points=[[0,0,0],[0.25,0,0],[0.5,0,0],[0.75,0,0],[1,0,0],[0,1,0],[0.25,1,0],[0.5,1,0],[0.75,1,0],[1,1,0],[0,0.25,0],[0,0.5,0],[0,0.75,0],[1,0.25,0],[1,0.5,0],[1,0.75,0]];outlineConnect=0;fontColor=#232F3E;gradientColor=#F78E04;gradientDirection=north;fillColor=#D05C17;strokeColor=#ffffff;dashed=0;verticalLabelPosition=bottom;verticalAlign=top;align=center;html=1;fontSize=12;fontStyle=0;aspect=fixed;shape=mxgraph.aws4.resourceIcon;resIcon=mxgraph.aws4.ecs;" vertex="1" parent="1">
          <mxGeometry x="1221" y="259.75" width="48" height="48" as="geometry" />
        </mxCell>
        <mxCell id="y-JFG-o3m0YFWxHJN8Iu-21" value="" style="outlineConnect=0;dashed=0;verticalLabelPosition=bottom;verticalAlign=top;align=center;html=1;shape=mxgraph.aws3.bucket_with_objects;fillColor=#E05243;gradientColor=none;" vertex="1" parent="1">
          <mxGeometry x="1441" y="258" width="50" height="51.5" as="geometry" />
        </mxCell>
        <mxCell id="y-JFG-o3m0YFWxHJN8Iu-22" value="" style="outlineConnect=0;dashed=0;verticalLabelPosition=bottom;verticalAlign=top;align=center;html=1;shape=mxgraph.aws3.rds;fillColor=#2E73B8;gradientColor=none;" vertex="1" parent="1">
          <mxGeometry x="1361" y="188" width="50" height="61" as="geometry" />
        </mxCell>
        <mxCell id="y-JFG-o3m0YFWxHJN8Iu-23" value="" style="outlineConnect=0;dashed=0;verticalLabelPosition=bottom;verticalAlign=top;align=center;html=1;shape=mxgraph.aws3.ec2;fillColor=#F58534;gradientColor=none;" vertex="1" parent="1">
          <mxGeometry x="1251" y="165" width="60" height="63" as="geometry" />
        </mxCell>
        <mxCell id="y-JFG-o3m0YFWxHJN8Iu-24" value="AWS Cloud" style="sketch=0;outlineConnect=0;fontColor=#232F3E;gradientColor=none;strokeColor=#232F3E;fillColor=#ffffff;dashed=0;verticalLabelPosition=bottom;verticalAlign=top;align=center;html=1;fontSize=12;fontStyle=0;aspect=fixed;shape=mxgraph.aws4.resourceIcon;resIcon=mxgraph.aws4.aws_cloud;" vertex="1" parent="1">
          <mxGeometry x="1376" y="323" width="60" height="60" as="geometry" />
        </mxCell>
        <mxCell id="y-JFG-o3m0YFWxHJN8Iu-34" value="STG" style="text;html=1;align=center;verticalAlign=middle;resizable=0;points=[];autosize=1;strokeColor=none;fillColor=none;fontSize=24;fontStyle=1;fontColor=#006600;" vertex="1" parent="1">
          <mxGeometry x="1311" y="270" width="70" height="40" as="geometry" />
        </mxCell>
        <mxCell id="y-JFG-o3m0YFWxHJN8Iu-35" value="SBX" style="text;html=1;align=center;verticalAlign=middle;resizable=0;points=[];autosize=1;strokeColor=none;fillColor=none;fontSize=24;fontStyle=1;fontColor=#006600;" vertex="1" parent="1">
          <mxGeometry x="1311" y="682.75" width="70" height="40" as="geometry" />
        </mxCell>
        <mxCell id="y-JFG-o3m0YFWxHJN8Iu-36" value="PROD" style="text;html=1;align=center;verticalAlign=middle;resizable=0;points=[];autosize=1;strokeColor=none;fillColor=none;fontSize=24;fontStyle=1;fontColor=#006600;" vertex="1" parent="1">
          <mxGeometry x="1301" y="1100" width="90" height="40" as="geometry" />
        </mxCell>
        <mxCell id="y-JFG-o3m0YFWxHJN8Iu-12" value="" style="sketch=0;points=[[0,0,0],[0.25,0,0],[0.5,0,0],[0.75,0,0],[1,0,0],[0,1,0],[0.25,1,0],[0.5,1,0],[0.75,1,0],[1,1,0],[0,0.25,0],[0,0.5,0],[0,0.75,0],[1,0.25,0],[1,0.5,0],[1,0.75,0]];outlineConnect=0;fontColor=#232F3E;gradientColor=#F78E04;gradientDirection=north;fillColor=#D05C17;strokeColor=#ffffff;dashed=0;verticalLabelPosition=bottom;verticalAlign=top;align=center;html=1;fontSize=12;fontStyle=0;aspect=fixed;shape=mxgraph.aws4.resourceIcon;resIcon=mxgraph.aws4.ecs;" vertex="1" parent="1">
          <mxGeometry x="1221" y="674.75" width="48" height="48" as="geometry" />
        </mxCell>
        <mxCell id="y-JFG-o3m0YFWxHJN8Iu-13" value="" style="outlineConnect=0;dashed=0;verticalLabelPosition=bottom;verticalAlign=top;align=center;html=1;shape=mxgraph.aws3.bucket_with_objects;fillColor=#E05243;gradientColor=none;" vertex="1" parent="1">
          <mxGeometry x="1441" y="673" width="50" height="51.5" as="geometry" />
        </mxCell>
        <mxCell id="y-JFG-o3m0YFWxHJN8Iu-14" value="" style="outlineConnect=0;dashed=0;verticalLabelPosition=bottom;verticalAlign=top;align=center;html=1;shape=mxgraph.aws3.rds;fillColor=#2E73B8;gradientColor=none;" vertex="1" parent="1">
          <mxGeometry x="1361" y="603" width="50" height="61" as="geometry" />
        </mxCell>
        <mxCell id="y-JFG-o3m0YFWxHJN8Iu-15" value="" style="outlineConnect=0;dashed=0;verticalLabelPosition=bottom;verticalAlign=top;align=center;html=1;shape=mxgraph.aws3.ec2;fillColor=#F58534;gradientColor=none;" vertex="1" parent="1">
          <mxGeometry x="1251" y="580" width="60" height="63" as="geometry" />
        </mxCell>
        <mxCell id="y-JFG-o3m0YFWxHJN8Iu-16" value="AWS Cloud" style="sketch=0;outlineConnect=0;fontColor=#232F3E;gradientColor=none;strokeColor=#232F3E;fillColor=#ffffff;dashed=0;verticalLabelPosition=bottom;verticalAlign=top;align=center;html=1;fontSize=12;fontStyle=0;aspect=fixed;shape=mxgraph.aws4.resourceIcon;resIcon=mxgraph.aws4.aws_cloud;" vertex="1" parent="1">
          <mxGeometry x="1376" y="738" width="60" height="60" as="geometry" />
        </mxCell>
        <mxCell id="y-JFG-o3m0YFWxHJN8Iu-28" value="" style="sketch=0;points=[[0,0,0],[0.25,0,0],[0.5,0,0],[0.75,0,0],[1,0,0],[0,1,0],[0.25,1,0],[0.5,1,0],[0.75,1,0],[1,1,0],[0,0.25,0],[0,0.5,0],[0,0.75,0],[1,0.25,0],[1,0.5,0],[1,0.75,0]];outlineConnect=0;fontColor=#232F3E;gradientColor=#F78E04;gradientDirection=north;fillColor=#D05C17;strokeColor=#ffffff;dashed=0;verticalLabelPosition=bottom;verticalAlign=top;align=center;html=1;fontSize=12;fontStyle=0;aspect=fixed;shape=mxgraph.aws4.resourceIcon;resIcon=mxgraph.aws4.ecs;" vertex="1" parent="1">
          <mxGeometry x="1221" y="1084.75" width="48" height="48" as="geometry" />
        </mxCell>
        <mxCell id="y-JFG-o3m0YFWxHJN8Iu-29" value="" style="outlineConnect=0;dashed=0;verticalLabelPosition=bottom;verticalAlign=top;align=center;html=1;shape=mxgraph.aws3.bucket_with_objects;fillColor=#E05243;gradientColor=none;" vertex="1" parent="1">
          <mxGeometry x="1441" y="1083" width="50" height="51.5" as="geometry" />
        </mxCell>
        <mxCell id="y-JFG-o3m0YFWxHJN8Iu-30" value="" style="outlineConnect=0;dashed=0;verticalLabelPosition=bottom;verticalAlign=top;align=center;html=1;shape=mxgraph.aws3.rds;fillColor=#2E73B8;gradientColor=none;" vertex="1" parent="1">
          <mxGeometry x="1361" y="1013" width="50" height="61" as="geometry" />
        </mxCell>
        <mxCell id="y-JFG-o3m0YFWxHJN8Iu-31" value="" style="outlineConnect=0;dashed=0;verticalLabelPosition=bottom;verticalAlign=top;align=center;html=1;shape=mxgraph.aws3.ec2;fillColor=#F58534;gradientColor=none;" vertex="1" parent="1">
          <mxGeometry x="1251" y="990" width="60" height="63" as="geometry" />
        </mxCell>
        <mxCell id="y-JFG-o3m0YFWxHJN8Iu-32" value="AWS Cloud" style="sketch=0;outlineConnect=0;fontColor=#232F3E;gradientColor=none;strokeColor=#232F3E;fillColor=#ffffff;dashed=0;verticalLabelPosition=bottom;verticalAlign=top;align=center;html=1;fontSize=12;fontStyle=0;aspect=fixed;shape=mxgraph.aws4.resourceIcon;resIcon=mxgraph.aws4.aws_cloud;" vertex="1" parent="1">
          <mxGeometry x="1376" y="1148" width="60" height="60" as="geometry" />
        </mxCell>
        <mxCell id="y-JFG-o3m0YFWxHJN8Iu-60" value="" style="group" vertex="1" connectable="0" parent="1">
          <mxGeometry x="560" y="163.75" width="330" height="276.25" as="geometry" />
        </mxCell>
        <mxCell id="y-JFG-o3m0YFWxHJN8Iu-59" value="" style="ellipse;whiteSpace=wrap;html=1;aspect=fixed;fontSize=24;fillColor=#dae8fc;strokeColor=#6c8ebf;" vertex="1" parent="y-JFG-o3m0YFWxHJN8Iu-60">
          <mxGeometry x="10" y="-43.75" width="320" height="320" as="geometry" />
        </mxCell>
        <mxCell id="y-JFG-o3m0YFWxHJN8Iu-3" value="Jenkins Master&lt;br&gt;(Team A)" style="rounded=1;whiteSpace=wrap;html=1;" vertex="1" parent="y-JFG-o3m0YFWxHJN8Iu-60">
          <mxGeometry y="90" width="120" height="60" as="geometry" />
        </mxCell>
        <mxCell id="y-JFG-o3m0YFWxHJN8Iu-6" value="Spotfleet 1" style="rounded=1;whiteSpace=wrap;html=1;" vertex="1" parent="y-JFG-o3m0YFWxHJN8Iu-60">
          <mxGeometry x="190" width="120" height="60" as="geometry" />
        </mxCell>
        <mxCell id="y-JFG-o3m0YFWxHJN8Iu-37" style="edgeStyle=orthogonalEdgeStyle;rounded=0;orthogonalLoop=1;jettySize=auto;html=1;entryX=0;entryY=0.5;entryDx=0;entryDy=0;fontSize=24;fontColor=#006600;" edge="1" parent="y-JFG-o3m0YFWxHJN8Iu-60" source="y-JFG-o3m0YFWxHJN8Iu-3" target="y-JFG-o3m0YFWxHJN8Iu-6">
          <mxGeometry relative="1" as="geometry" />
        </mxCell>
        <mxCell id="y-JFG-o3m0YFWxHJN8Iu-7" value="Spotfleet 2" style="rounded=1;whiteSpace=wrap;html=1;" vertex="1" parent="y-JFG-o3m0YFWxHJN8Iu-60">
          <mxGeometry x="190" y="90" width="120" height="60" as="geometry" />
        </mxCell>
        <mxCell id="y-JFG-o3m0YFWxHJN8Iu-38" style="edgeStyle=orthogonalEdgeStyle;rounded=0;orthogonalLoop=1;jettySize=auto;html=1;fontSize=24;fontColor=#006600;" edge="1" parent="y-JFG-o3m0YFWxHJN8Iu-60" source="y-JFG-o3m0YFWxHJN8Iu-3" target="y-JFG-o3m0YFWxHJN8Iu-7">
          <mxGeometry relative="1" as="geometry" />
        </mxCell>
        <mxCell id="y-JFG-o3m0YFWxHJN8Iu-8" value="Spotfleet ?" style="rounded=1;whiteSpace=wrap;html=1;" vertex="1" parent="y-JFG-o3m0YFWxHJN8Iu-60">
          <mxGeometry x="190" y="180" width="120" height="60" as="geometry" />
        </mxCell>
        <mxCell id="y-JFG-o3m0YFWxHJN8Iu-39" style="edgeStyle=orthogonalEdgeStyle;rounded=0;orthogonalLoop=1;jettySize=auto;html=1;entryX=0;entryY=0.5;entryDx=0;entryDy=0;fontSize=24;fontColor=#006600;" edge="1" parent="y-JFG-o3m0YFWxHJN8Iu-60" source="y-JFG-o3m0YFWxHJN8Iu-3" target="y-JFG-o3m0YFWxHJN8Iu-8">
          <mxGeometry relative="1" as="geometry" />
        </mxCell>
        <mxCell id="y-JFG-o3m0YFWxHJN8Iu-130" value="UI" style="text;html=1;align=center;verticalAlign=middle;resizable=0;points=[];autosize=1;strokeColor=none;fillColor=none;fontSize=15;fontColor=#006600;" vertex="1" parent="y-JFG-o3m0YFWxHJN8Iu-60">
          <mxGeometry x="30" y="-44.75" width="40" height="30" as="geometry" />
        </mxCell>
        <mxCell id="y-JFG-o3m0YFWxHJN8Iu-82" value="" style="group" vertex="1" connectable="0" parent="1">
          <mxGeometry x="550" y="950" width="330" height="276.25" as="geometry" />
        </mxCell>
        <mxCell id="y-JFG-o3m0YFWxHJN8Iu-83" value="" style="ellipse;whiteSpace=wrap;html=1;aspect=fixed;fontSize=24;fontColor=#333333;fillColor=#f5f5f5;strokeColor=#E6E6E6;" vertex="1" parent="y-JFG-o3m0YFWxHJN8Iu-82">
          <mxGeometry x="10" y="-43.75" width="320" height="320" as="geometry" />
        </mxCell>
        <mxCell id="y-JFG-o3m0YFWxHJN8Iu-84" value="Jenkins Master&lt;br&gt;(Team X)" style="rounded=1;whiteSpace=wrap;html=1;strokeColor=#CCCCCC;" vertex="1" parent="y-JFG-o3m0YFWxHJN8Iu-82">
          <mxGeometry y="90" width="120" height="60" as="geometry" />
        </mxCell>
        <mxCell id="y-JFG-o3m0YFWxHJN8Iu-85" value="Spotfleet 1" style="rounded=1;whiteSpace=wrap;html=1;strokeColor=#CCCCCC;" vertex="1" parent="y-JFG-o3m0YFWxHJN8Iu-82">
          <mxGeometry x="190" width="120" height="60" as="geometry" />
        </mxCell>
        <mxCell id="y-JFG-o3m0YFWxHJN8Iu-86" style="edgeStyle=orthogonalEdgeStyle;rounded=0;orthogonalLoop=1;jettySize=auto;html=1;entryX=0;entryY=0.5;entryDx=0;entryDy=0;fontSize=24;fontColor=#006600;strokeColor=#CCCCCC;" edge="1" parent="y-JFG-o3m0YFWxHJN8Iu-82" source="y-JFG-o3m0YFWxHJN8Iu-84" target="y-JFG-o3m0YFWxHJN8Iu-85">
          <mxGeometry relative="1" as="geometry" />
        </mxCell>
        <mxCell id="y-JFG-o3m0YFWxHJN8Iu-87" value="Spotfleet 2" style="rounded=1;whiteSpace=wrap;html=1;strokeColor=#CCCCCC;" vertex="1" parent="y-JFG-o3m0YFWxHJN8Iu-82">
          <mxGeometry x="190" y="90" width="120" height="60" as="geometry" />
        </mxCell>
        <mxCell id="y-JFG-o3m0YFWxHJN8Iu-88" style="edgeStyle=orthogonalEdgeStyle;rounded=0;orthogonalLoop=1;jettySize=auto;html=1;fontSize=24;fontColor=#006600;" edge="1" parent="y-JFG-o3m0YFWxHJN8Iu-82" source="y-JFG-o3m0YFWxHJN8Iu-84" target="y-JFG-o3m0YFWxHJN8Iu-87">
          <mxGeometry relative="1" as="geometry" />
        </mxCell>
        <mxCell id="y-JFG-o3m0YFWxHJN8Iu-89" value="Spotfleet ?" style="rounded=1;whiteSpace=wrap;html=1;strokeColor=#CCCCCC;" vertex="1" parent="y-JFG-o3m0YFWxHJN8Iu-82">
          <mxGeometry x="190" y="180" width="120" height="60" as="geometry" />
        </mxCell>
        <mxCell id="y-JFG-o3m0YFWxHJN8Iu-90" style="edgeStyle=orthogonalEdgeStyle;rounded=0;orthogonalLoop=1;jettySize=auto;html=1;entryX=0;entryY=0.5;entryDx=0;entryDy=0;fontSize=24;fontColor=#006600;strokeColor=#CCCCCC;" edge="1" parent="y-JFG-o3m0YFWxHJN8Iu-82" source="y-JFG-o3m0YFWxHJN8Iu-84" target="y-JFG-o3m0YFWxHJN8Iu-89">
          <mxGeometry relative="1" as="geometry" />
        </mxCell>
        <mxCell id="y-JFG-o3m0YFWxHJN8Iu-95" style="edgeStyle=none;rounded=0;orthogonalLoop=1;jettySize=auto;html=1;fontSize=24;fontColor=#006600;startArrow=classic;startFill=1;strokeWidth=5;strokeColor=#006600;" edge="1" parent="1" source="y-JFG-o3m0YFWxHJN8Iu-59" target="y-JFG-o3m0YFWxHJN8Iu-18">
          <mxGeometry relative="1" as="geometry" />
        </mxCell>
        <mxCell id="y-JFG-o3m0YFWxHJN8Iu-96" style="edgeStyle=none;rounded=0;orthogonalLoop=1;jettySize=auto;html=1;entryX=0.07;entryY=0.478;entryDx=0;entryDy=0;entryPerimeter=0;fontSize=24;fontColor=#006600;startArrow=classic;startFill=1;strokeColor=#E6E6E6;" edge="1" parent="1" source="y-JFG-o3m0YFWxHJN8Iu-74" target="y-JFG-o3m0YFWxHJN8Iu-10">
          <mxGeometry relative="1" as="geometry" />
        </mxCell>
        <mxCell id="y-JFG-o3m0YFWxHJN8Iu-98" style="edgeStyle=none;rounded=0;orthogonalLoop=1;jettySize=auto;html=1;fontSize=24;fontColor=#006600;startArrow=classic;startFill=1;strokeColor=#E6E6E6;" edge="1" parent="1" source="y-JFG-o3m0YFWxHJN8Iu-83" target="y-JFG-o3m0YFWxHJN8Iu-26">
          <mxGeometry relative="1" as="geometry" />
        </mxCell>
        <mxCell id="y-JFG-o3m0YFWxHJN8Iu-102" style="edgeStyle=none;rounded=0;orthogonalLoop=1;jettySize=auto;html=1;fontSize=24;fontColor=#006600;startArrow=classic;startFill=1;strokeColor=#E6E6E6;" edge="1" parent="1" target="y-JFG-o3m0YFWxHJN8Iu-18">
          <mxGeometry relative="1" as="geometry">
            <mxPoint x="890" y="666" as="sourcePoint" />
          </mxGeometry>
        </mxCell>
        <mxCell id="y-JFG-o3m0YFWxHJN8Iu-103" style="edgeStyle=none;rounded=0;orthogonalLoop=1;jettySize=auto;html=1;fontSize=24;fontColor=#006600;startArrow=classic;startFill=1;exitX=1;exitY=0.5;exitDx=0;exitDy=0;strokeColor=#E6E6E6;" edge="1" parent="1" source="y-JFG-o3m0YFWxHJN8Iu-74" target="y-JFG-o3m0YFWxHJN8Iu-26">
          <mxGeometry relative="1" as="geometry" />
        </mxCell>
        <mxCell id="y-JFG-o3m0YFWxHJN8Iu-74" value="" style="ellipse;whiteSpace=wrap;html=1;aspect=fixed;fontSize=24;fontColor=#333333;fillColor=#f5f5f5;strokeColor=#E6E6E6;" vertex="1" parent="1">
          <mxGeometry x="570" y="506.25" width="320" height="320" as="geometry" />
        </mxCell>
        <mxCell id="y-JFG-o3m0YFWxHJN8Iu-75" value="Jenkins Master&lt;br&gt;(Team ...)" style="rounded=1;whiteSpace=wrap;html=1;strokeColor=#CCCCCC;" vertex="1" parent="1">
          <mxGeometry x="560" y="640" width="120" height="60" as="geometry" />
        </mxCell>
        <mxCell id="y-JFG-o3m0YFWxHJN8Iu-76" value="Spotfleet 1" style="rounded=1;whiteSpace=wrap;html=1;strokeColor=#CCCCCC;" vertex="1" parent="1">
          <mxGeometry x="750" y="550" width="120" height="60" as="geometry" />
        </mxCell>
        <mxCell id="y-JFG-o3m0YFWxHJN8Iu-77" style="edgeStyle=orthogonalEdgeStyle;rounded=0;orthogonalLoop=1;jettySize=auto;html=1;entryX=0;entryY=0.5;entryDx=0;entryDy=0;fontSize=24;fontColor=#006600;strokeColor=#CCCCCC;" edge="1" parent="1" source="y-JFG-o3m0YFWxHJN8Iu-75" target="y-JFG-o3m0YFWxHJN8Iu-76">
          <mxGeometry relative="1" as="geometry" />
        </mxCell>
        <mxCell id="y-JFG-o3m0YFWxHJN8Iu-78" value="Spotfleet 2" style="rounded=1;whiteSpace=wrap;html=1;strokeColor=#CCCCCC;" vertex="1" parent="1">
          <mxGeometry x="750" y="640" width="120" height="60" as="geometry" />
        </mxCell>
        <mxCell id="y-JFG-o3m0YFWxHJN8Iu-79" style="edgeStyle=orthogonalEdgeStyle;rounded=0;orthogonalLoop=1;jettySize=auto;html=1;fontSize=24;fontColor=#006600;" edge="1" parent="1" source="y-JFG-o3m0YFWxHJN8Iu-75" target="y-JFG-o3m0YFWxHJN8Iu-78">
          <mxGeometry relative="1" as="geometry" />
        </mxCell>
        <mxCell id="y-JFG-o3m0YFWxHJN8Iu-80" value="Spotfleet ?" style="rounded=1;whiteSpace=wrap;html=1;strokeColor=#CCCCCC;" vertex="1" parent="1">
          <mxGeometry x="750" y="730" width="120" height="60" as="geometry" />
        </mxCell>
        <mxCell id="y-JFG-o3m0YFWxHJN8Iu-81" style="edgeStyle=orthogonalEdgeStyle;rounded=0;orthogonalLoop=1;jettySize=auto;html=1;entryX=0;entryY=0.5;entryDx=0;entryDy=0;fontSize=24;fontColor=#006600;strokeColor=#CCCCCC;" edge="1" parent="1" source="y-JFG-o3m0YFWxHJN8Iu-75" target="y-JFG-o3m0YFWxHJN8Iu-80">
          <mxGeometry relative="1" as="geometry" />
        </mxCell>
        <mxCell id="y-JFG-o3m0YFWxHJN8Iu-100" style="edgeStyle=none;rounded=0;orthogonalLoop=1;jettySize=auto;html=1;fontSize=24;fontColor=#006600;startArrow=classic;startFill=1;strokeWidth=5;strokeColor=#006600;" edge="1" parent="1" target="y-JFG-o3m0YFWxHJN8Iu-10">
          <mxGeometry relative="1" as="geometry">
            <mxPoint x="890" y="280" as="sourcePoint" />
          </mxGeometry>
        </mxCell>
        <mxCell id="y-JFG-o3m0YFWxHJN8Iu-101" style="edgeStyle=none;rounded=0;orthogonalLoop=1;jettySize=auto;html=1;fontSize=24;fontColor=#006600;startArrow=classic;startFill=1;exitX=1;exitY=0.5;exitDx=0;exitDy=0;strokeWidth=5;strokeColor=#006600;" edge="1" parent="1" source="y-JFG-o3m0YFWxHJN8Iu-59" target="y-JFG-o3m0YFWxHJN8Iu-26">
          <mxGeometry relative="1" as="geometry">
            <mxPoint x="900" y="284" as="sourcePoint" />
          </mxGeometry>
        </mxCell>
        <mxCell id="y-JFG-o3m0YFWxHJN8Iu-104" style="edgeStyle=none;rounded=0;orthogonalLoop=1;jettySize=auto;html=1;fontSize=24;fontColor=#006600;startArrow=classic;startFill=1;exitX=1;exitY=0.5;exitDx=0;exitDy=0;strokeColor=#E6E6E6;" edge="1" parent="1" source="y-JFG-o3m0YFWxHJN8Iu-83" target="y-JFG-o3m0YFWxHJN8Iu-18">
          <mxGeometry relative="1" as="geometry" />
        </mxCell>
        <mxCell id="y-JFG-o3m0YFWxHJN8Iu-105" style="edgeStyle=none;rounded=0;orthogonalLoop=1;jettySize=auto;html=1;fontSize=24;fontColor=#006600;startArrow=classic;startFill=1;strokeColor=#E6E6E6;" edge="1" parent="1" target="y-JFG-o3m0YFWxHJN8Iu-10">
          <mxGeometry relative="1" as="geometry">
            <mxPoint x="880" y="1066" as="sourcePoint" />
          </mxGeometry>
        </mxCell>
        <mxCell id="y-JFG-o3m0YFWxHJN8Iu-107" value="Billing Service&lt;br&gt;Deployment&amp;nbsp;" style="ellipse;whiteSpace=wrap;html=1;aspect=fixed;strokeColor=#CCCCCC;fontSize=15;fontColor=#006600;fillColor=#FFFFFF;" vertex="1" parent="1">
          <mxGeometry x="290" y="-160" width="140" height="140" as="geometry" />
        </mxCell>
        <mxCell id="y-JFG-o3m0YFWxHJN8Iu-108" value="Micro Services Deployment" style="ellipse;whiteSpace=wrap;html=1;aspect=fixed;strokeColor=#CCCCCC;fontSize=15;fontColor=#006600;fillColor=#FFFFFF;" vertex="1" parent="1">
          <mxGeometry x="530" y="-160" width="140" height="140" as="geometry" />
        </mxCell>
        <mxCell id="y-JFG-o3m0YFWxHJN8Iu-109" value="QA Pipelines (Perf, Sanity Test, ...)" style="ellipse;whiteSpace=wrap;html=1;aspect=fixed;strokeColor=#CCCCCC;fontSize=15;fontColor=#006600;fillColor=#FFFFFF;" vertex="1" parent="1">
          <mxGeometry x="770" y="-160" width="140" height="140" as="geometry" />
        </mxCell>
        <mxCell id="y-JFG-o3m0YFWxHJN8Iu-110" value="Services Operation (DB, Kafka, ...)" style="ellipse;whiteSpace=wrap;html=1;aspect=fixed;strokeColor=#CCCCCC;fontSize=15;fontColor=#006600;fillColor=#FFFFFF;" vertex="1" parent="1">
          <mxGeometry x="1010" y="-160" width="140" height="140" as="geometry" />
        </mxCell>
        <mxCell id="y-JFG-o3m0YFWxHJN8Iu-112" style="edgeStyle=orthogonalEdgeStyle;rounded=0;orthogonalLoop=1;jettySize=auto;html=1;entryX=0.5;entryY=1;entryDx=0;entryDy=0;dashed=1;strokeColor=#CC0000;strokeWidth=1;fontSize=15;fontColor=#006600;startArrow=classic;startFill=1;" edge="1" parent="1" source="y-JFG-o3m0YFWxHJN8Iu-59" target="y-JFG-o3m0YFWxHJN8Iu-108">
          <mxGeometry relative="1" as="geometry" />
        </mxCell>
        <mxCell id="y-JFG-o3m0YFWxHJN8Iu-113" style="edgeStyle=orthogonalEdgeStyle;rounded=0;orthogonalLoop=1;jettySize=auto;html=1;entryX=0.5;entryY=1;entryDx=0;entryDy=0;dashed=1;strokeColor=#CC0000;strokeWidth=1;fontSize=15;fontColor=#006600;startArrow=classic;startFill=1;" edge="1" parent="1" source="y-JFG-o3m0YFWxHJN8Iu-59" target="y-JFG-o3m0YFWxHJN8Iu-109">
          <mxGeometry relative="1" as="geometry" />
        </mxCell>
        <mxCell id="y-JFG-o3m0YFWxHJN8Iu-114" style="edgeStyle=orthogonalEdgeStyle;rounded=0;orthogonalLoop=1;jettySize=auto;html=1;entryX=0.5;entryY=1;entryDx=0;entryDy=0;dashed=1;strokeColor=#CC0000;strokeWidth=1;fontSize=15;fontColor=#006600;startArrow=classic;startFill=1;" edge="1" parent="1" source="y-JFG-o3m0YFWxHJN8Iu-59" target="y-JFG-o3m0YFWxHJN8Iu-110">
          <mxGeometry relative="1" as="geometry">
            <Array as="points">
              <mxPoint x="730" y="50" />
              <mxPoint x="1080" y="50" />
            </Array>
          </mxGeometry>
        </mxCell>
        <mxCell id="y-JFG-o3m0YFWxHJN8Iu-115" style="edgeStyle=orthogonalEdgeStyle;rounded=0;orthogonalLoop=1;jettySize=auto;html=1;entryX=0.5;entryY=1;entryDx=0;entryDy=0;dashed=1;strokeColor=#CC0000;strokeWidth=1;fontSize=15;fontColor=#006600;startArrow=classic;startFill=1;" edge="1" parent="1" source="y-JFG-o3m0YFWxHJN8Iu-59" target="y-JFG-o3m0YFWxHJN8Iu-107">
          <mxGeometry relative="1" as="geometry">
            <Array as="points">
              <mxPoint x="730" y="50" />
              <mxPoint x="360" y="50" />
            </Array>
          </mxGeometry>
        </mxCell>
        <mxCell id="y-JFG-o3m0YFWxHJN8Iu-116" value="???" style="ellipse;whiteSpace=wrap;html=1;aspect=fixed;strokeColor=#CCCCCC;fontSize=15;fontColor=#006600;fillColor=#FFFFFF;" vertex="1" parent="1">
          <mxGeometry x="1251" y="-160" width="140" height="140" as="geometry" />
        </mxCell>
        <mxCell id="y-JFG-o3m0YFWxHJN8Iu-117" style="edgeStyle=orthogonalEdgeStyle;rounded=0;orthogonalLoop=1;jettySize=auto;html=1;entryX=0.5;entryY=1;entryDx=0;entryDy=0;dashed=1;strokeColor=#CC0000;strokeWidth=1;fontSize=15;fontColor=#006600;startArrow=classic;startFill=1;" edge="1" parent="1" source="y-JFG-o3m0YFWxHJN8Iu-59" target="y-JFG-o3m0YFWxHJN8Iu-116">
          <mxGeometry relative="1" as="geometry">
            <Array as="points">
              <mxPoint x="730" y="50" />
              <mxPoint x="1321" y="50" />
            </Array>
          </mxGeometry>
        </mxCell>
        <mxCell id="y-JFG-o3m0YFWxHJN8Iu-118" value="" style="shape=umlActor;verticalLabelPosition=bottom;verticalAlign=top;html=1;outlineConnect=0;strokeColor=#000000;fontSize=15;fontColor=#006600;fillColor=#FFFFFF;" vertex="1" parent="1">
          <mxGeometry x="490" y="86" width="30" height="60" as="geometry" />
        </mxCell>
        <mxCell id="y-JFG-o3m0YFWxHJN8Iu-123" style="rounded=0;orthogonalLoop=1;jettySize=auto;html=1;entryX=0;entryY=0;entryDx=0;entryDy=0;strokeColor=#CC0000;strokeWidth=1;fontSize=15;fontColor=#006600;startArrow=classic;startFill=1;" edge="1" parent="1" source="y-JFG-o3m0YFWxHJN8Iu-119" target="y-JFG-o3m0YFWxHJN8Iu-59">
          <mxGeometry relative="1" as="geometry" />
        </mxCell>
        <mxCell id="y-JFG-o3m0YFWxHJN8Iu-119" value="" style="shape=umlActor;verticalLabelPosition=bottom;verticalAlign=top;html=1;outlineConnect=0;strokeColor=#000000;fontSize=15;fontColor=#006600;fillColor=#FFFFFF;" vertex="1" parent="1">
          <mxGeometry x="530" y="103.75" width="30" height="60" as="geometry" />
        </mxCell>
        <mxCell id="y-JFG-o3m0YFWxHJN8Iu-121" value="" style="shape=umlActor;verticalLabelPosition=bottom;verticalAlign=top;html=1;outlineConnect=0;strokeColor=#000000;fontSize=15;fontColor=#006600;fillColor=#FFFFFF;" vertex="1" parent="1">
          <mxGeometry x="515" y="60" width="30" height="60" as="geometry" />
        </mxCell>
        <mxCell id="y-JFG-o3m0YFWxHJN8Iu-124" value="Team A" style="text;html=1;align=center;verticalAlign=middle;resizable=0;points=[];autosize=1;strokeColor=none;fillColor=none;fontSize=15;fontColor=#006600;" vertex="1" parent="1">
          <mxGeometry x="475" y="146" width="70" height="30" as="geometry" />
        </mxCell>
        <mxCell id="y-JFG-o3m0YFWxHJN8Iu-126" style="edgeStyle=none;rounded=0;orthogonalLoop=1;jettySize=auto;html=1;strokeColor=#CC0000;strokeWidth=1;fontSize=15;fontColor=#006600;startArrow=classic;startFill=1;" edge="1" parent="1" source="y-JFG-o3m0YFWxHJN8Iu-125" target="y-JFG-o3m0YFWxHJN8Iu-3">
          <mxGeometry relative="1" as="geometry" />
        </mxCell>
        <mxCell id="y-JFG-o3m0YFWxHJN8Iu-127" style="edgeStyle=none;rounded=0;orthogonalLoop=1;jettySize=auto;html=1;entryX=0;entryY=0.5;entryDx=0;entryDy=0;strokeColor=#E6E6E6;strokeWidth=1;fontSize=15;fontColor=#006600;startArrow=classic;startFill=1;" edge="1" parent="1" source="y-JFG-o3m0YFWxHJN8Iu-125" target="y-JFG-o3m0YFWxHJN8Iu-75">
          <mxGeometry relative="1" as="geometry" />
        </mxCell>
        <mxCell id="y-JFG-o3m0YFWxHJN8Iu-128" style="edgeStyle=none;rounded=0;orthogonalLoop=1;jettySize=auto;html=1;entryX=0;entryY=0.5;entryDx=0;entryDy=0;strokeColor=#E6E6E6;strokeWidth=1;fontSize=15;fontColor=#006600;startArrow=classic;startFill=1;" edge="1" parent="1" source="y-JFG-o3m0YFWxHJN8Iu-125" target="y-JFG-o3m0YFWxHJN8Iu-84">
          <mxGeometry relative="1" as="geometry" />
        </mxCell>
        <mxCell id="y-JFG-o3m0YFWxHJN8Iu-125" value="Tools Team" style="shape=umlActor;verticalLabelPosition=bottom;verticalAlign=top;html=1;outlineConnect=0;strokeColor=#000000;fontSize=15;fontColor=#006600;fillColor=#FFFFFF;" vertex="1" parent="1">
          <mxGeometry x="80" y="251" width="30" height="60" as="geometry" />
        </mxCell>
        <mxCell id="y-JFG-o3m0YFWxHJN8Iu-132" value="" style="points=[[0.145,0.145,0],[0.5,0,0],[0.855,0.145,0],[1,0.5,0],[0.855,0.855,0],[0.5,1,0],[0.145,0.855,0],[0,0.5,0]];shape=mxgraph.bpmn.event;html=1;verticalLabelPosition=bottom;labelBackgroundColor=#ffffff;verticalAlign=top;align=center;perimeter=ellipsePerimeter;outlineConnect=0;aspect=fixed;outline=boundInt;symbol=cancel;strokeColor=#000000;fontSize=15;fontColor=#006600;fillColor=#FF0000;" vertex="1" parent="1">
          <mxGeometry x="400" y="440" width="50" height="50" as="geometry" />
        </mxCell>
        <mxCell id="y-JFG-o3m0YFWxHJN8Iu-134" value="" style="points=[[0.145,0.145,0],[0.5,0,0],[0.855,0.145,0],[1,0.5,0],[0.855,0.855,0],[0.5,1,0],[0.145,0.855,0],[0,0.5,0]];shape=mxgraph.bpmn.event;html=1;verticalLabelPosition=bottom;labelBackgroundColor=#ffffff;verticalAlign=top;align=center;perimeter=ellipsePerimeter;outlineConnect=0;aspect=fixed;outline=boundInt;symbol=cancel;strokeColor=#000000;fontSize=15;fontColor=#006600;fillColor=#E6E6E6;" vertex="1" parent="1">
          <mxGeometry x="410" y="672.75" width="50" height="50" as="geometry" />
        </mxCell>
        <mxCell id="y-JFG-o3m0YFWxHJN8Iu-135" value="" style="points=[[0.145,0.145,0],[0.5,0,0],[0.855,0.145,0],[1,0.5,0],[0.855,0.855,0],[0.5,1,0],[0.145,0.855,0],[0,0.5,0]];shape=mxgraph.bpmn.event;html=1;verticalLabelPosition=bottom;labelBackgroundColor=#ffffff;verticalAlign=top;align=center;perimeter=ellipsePerimeter;outlineConnect=0;aspect=fixed;outline=boundInt;symbol=cancel;strokeColor=#000000;fontSize=15;fontColor=#006600;fillColor=#E6E6E6;" vertex="1" parent="1">
          <mxGeometry x="390" y="934" width="50" height="50" as="geometry" />
        </mxCell>
        <mxCell id="y-JFG-o3m0YFWxHJN8Iu-136" value="Broken ?" style="text;html=1;align=center;verticalAlign=middle;resizable=0;points=[];autosize=1;strokeColor=none;fillColor=none;fontSize=15;fontColor=#006600;" vertex="1" parent="1">
          <mxGeometry x="450" y="450" width="80" height="30" as="geometry" />
        </mxCell>
        <mxCell id="y-JFG-o3m0YFWxHJN8Iu-138" value="Broken ?" style="text;html=1;align=center;verticalAlign=middle;resizable=0;points=[];autosize=1;strokeColor=none;fillColor=none;fontSize=15;fontColor=#CCCCCC;" vertex="1" parent="1">
          <mxGeometry x="450" y="722.75" width="80" height="30" as="geometry" />
        </mxCell>
        <mxCell id="y-JFG-o3m0YFWxHJN8Iu-139" value="Broken ?" style="text;html=1;align=center;verticalAlign=middle;resizable=0;points=[];autosize=1;strokeColor=none;fillColor=none;fontSize=15;fontColor=#B3B3B3;" vertex="1" parent="1">
          <mxGeometry x="400" y="1000" width="80" height="30" as="geometry" />
        </mxCell>
        <mxCell id="y-JFG-o3m0YFWxHJN8Iu-140" value="" style="sketch=0;aspect=fixed;pointerEvents=1;shadow=0;dashed=0;html=1;strokeColor=none;labelPosition=center;verticalLabelPosition=bottom;verticalAlign=top;align=center;fillColor=#00188D;shape=mxgraph.mscae.enterprise.tool;fontSize=15;fontColor=#CCCCCC;" vertex="1" parent="1">
          <mxGeometry x="350" y="254" width="22.22" height="20" as="geometry" />
        </mxCell>
        <mxCell id="y-JFG-o3m0YFWxHJN8Iu-142" value="" style="shape=image;html=1;verticalAlign=top;verticalLabelPosition=bottom;labelBackgroundColor=#ffffff;imageAspect=0;aspect=fixed;image=https://cdn3.iconfinder.com/data/icons/lynx/16x16/places/gnome-fs-ssh.png;strokeColor=#000000;fontSize=15;fontColor=#CCCCCC;fillColor=#E6E6E6;" vertex="1" parent="1">
          <mxGeometry x="320" y="251" width="20" height="20" as="geometry" />
        </mxCell>
        <mxCell id="y-JFG-o3m0YFWxHJN8Iu-145" style="edgeStyle=none;rounded=0;orthogonalLoop=1;jettySize=auto;html=1;entryX=0.5;entryY=0;entryDx=0;entryDy=0;entryPerimeter=0;strokeColor=#FF0000;strokeWidth=1;fontSize=15;fontColor=none;startArrow=classic;startFill=1;dashed=1;endArrow=none;endFill=0;" edge="1" parent="1" source="y-JFG-o3m0YFWxHJN8Iu-144" target="y-JFG-o3m0YFWxHJN8Iu-125">
          <mxGeometry relative="1" as="geometry" />
        </mxCell>
        <mxCell id="y-JFG-o3m0YFWxHJN8Iu-144" value="&lt;ul&gt;&lt;li&gt;Jenkins knowledge?&amp;nbsp;&lt;/li&gt;&lt;li&gt;Server skills ?&lt;/li&gt;&lt;li&gt;Manual runbooks ?&lt;/li&gt;&lt;li&gt;Available ?&lt;/li&gt;&lt;li&gt;...&lt;/li&gt;&lt;/ul&gt;" style="shape=callout;whiteSpace=wrap;html=1;perimeter=calloutPerimeter;strokeColor=#000000;fontSize=15;fontColor=none;fillColor=none;align=left;" vertex="1" parent="1">
          <mxGeometry x="-90" y="-10" width="210" height="150" as="geometry" />
        </mxCell>
        <mxCell id="y-JFG-o3m0YFWxHJN8Iu-147" style="edgeStyle=none;rounded=0;orthogonalLoop=1;jettySize=auto;html=1;entryX=0;entryY=0.3333333333333333;entryDx=0;entryDy=0;entryPerimeter=0;strokeColor=#FF0000;strokeWidth=1;fontSize=15;fontColor=none;startArrow=classic;startFill=1;dashed=1;endArrow=none;endFill=0;" edge="1" parent="1" source="y-JFG-o3m0YFWxHJN8Iu-146" target="y-JFG-o3m0YFWxHJN8Iu-118">
          <mxGeometry relative="1" as="geometry" />
        </mxCell>
        <mxCell id="y-JFG-o3m0YFWxHJN8Iu-146" value="&lt;ul&gt;&lt;li&gt;Production patch ?&lt;/li&gt;&lt;li&gt;Operation ?&amp;nbsp;&lt;br&gt;&lt;/li&gt;&lt;li&gt;call P0 ?&lt;/li&gt;&lt;/ul&gt;" style="shape=callout;whiteSpace=wrap;html=1;perimeter=calloutPerimeter;strokeColor=#000000;fontSize=15;fontColor=none;fillColor=none;align=left;" vertex="1" parent="1">
          <mxGeometry x="210" y="133" width="170" height="116" as="geometry" />
        </mxCell>
      </root>
    </mxGraphModel>
  </diagram>
</mxfile>
